<svg width="45" height="40" viewBox="0 0 45 40" fill="none" xmlns="http://www.w3.org/2000/svg">
    <path d="M26.9333 4.44444L31 8.88889H40V35.5556H4.44444V8.88889H13.4444L17.5111 4.44444H26.9333ZM28.8889 0H15.5556L11.4889 4.44444H4.44444C2 4.44444 0 6.44444 0 8.88889V35.5556C0 38 2 40 4.44444 40H40C42.4444 40 44.4444 38 44.4444 35.5556V8.88889C44.4444 6.44444 42.4444 4.44444 40 4.44444H32.9556L28.8889 0ZM22.2222 15.5556C25.8889 15.5556 28.8889 18.5556 28.8889 22.2222C28.8889 25.8889 25.8889 28.8889 22.2222 28.8889C18.5556 28.8889 15.5556 25.8889 15.5556 22.2222C15.5556 18.5556 18.5556 15.5556 22.2222 15.5556ZM22.2222 11.1111C16.0889 11.1111 11.1111 16.0889 11.1111 22.2222C11.1111 28.3556 16.0889 33.3333 22.2222 33.3333C28.3556 33.3333 33.3333 28.3556 33.3333 22.2222C33.3333 16.0889 28.3556 11.1111 22.2222 11.1111Z" fill="black"/>
</svg>