<svg version="1.0" xmlns="http://www.w3.org/2000/svg" width="640" height="800" viewBox="0 0 480 600">
    <g fill="#999">
        <path d="M106.2 3.1c-6.9 3.4-10.4 7.1-13.8 14.4-2.2 4.7-2.4 6.2-2.4 23.7V60h300V22.3l-3.1-6.1c-3.4-6.9-7.1-10.4-14.4-13.8l-5-2.4H112.3l-6.1 3.1zM92 92c0 1.1.7 6.4 1.5 11.8 6.8 45.5 21.6 84.3 46.8 122.5l9.7 14.8v336.6l3.1 6.1c3.4 6.9 7.1 10.4 14.4 13.8l5 2.4h135l5-2.4c7.3-3.4 11-6.9 14.4-13.8l3.1-6.1V241.1l9.8-14.8c21.3-32.5 35.2-65.4 43.1-102.5 2.2-10.1 5.1-28.4 5.1-31.8 0-2-.5-2-148-2S92 90 92 92zm161.4 212c6 3.1 11.9 9.6 14.1 15.8 2.2 6 3.2 32.7 1.7 42.5-2.6 16.6-13.6 26.7-29.2 26.7-8.5 0-14.7-2.5-20.6-8.5-7.9-7.9-8.9-11.8-8.9-35.5s1-27.6 8.9-35.6c6.6-6.5 11.7-8.4 21.6-8.1 5.6.2 8.7.9 12.4 2.7z"/>
    </g>
</svg>